<svg width="143" height="117" viewBox="0 0 143 117" fill="none" xmlns="http://www.w3.org/2000/svg">
<path d="M131.39 29.8447C132.544 27.022 136.328 15.6352 130.191 0.252333C130.191 0.252333 120.787 -2.72316 99.4861 11.8311C90.5675 9.37666 80.9828 9.01035 71.5039 9.01035C62.025 9.01035 52.4482 9.37666 43.5022 11.8389C22.2094 -2.72512 12.8089 0.250376 12.8089 0.250376C6.67968 15.6411 10.4681 27.02 11.6179 29.8447C4.39957 37.6468 0 47.6076 0 59.819C0 105.793 29.7784 116.189 71.3374 116.189C112.916 116.189 143 105.795 143 59.819C143 47.6076 138.6 37.6448 131.38 29.8447H131.39ZM71.5078 107.392C41.988 107.392 18.0547 106.009 18.0547 77.4095C18.0547 70.579 21.4161 64.201 27.179 58.9317C36.7774 50.1364 53.0535 54.7848 71.5098 54.7848C89.9798 54.7848 106.232 50.1364 115.841 58.9219C121.609 64.201 124.981 70.5594 124.981 77.4016C124.981 106.011 101.032 107.392 71.5117 107.392H71.5078Z" fill="#FF3333"/>
</svg>